<svg id="Layer_1" data-name="Layer 1" xmlns="http://www.w3.org/2000/svg" viewBox="0 0 78.55 30.24"><defs><style>.cls-1{fill:#f1b91b;}.cls-2{fill:#fff;}</style></defs><path class="cls-1" d="M180,109a9,9,0,1,0-15.7,6,9,9,0,1,0,13.4,0A9,9,0,0,0,180,109Zm-9-3a3,3,0,1,1-3,3A3,3,0,0,1,171,106Zm0,18a3,3,0,1,1,3-3A3,3,0,0,1,171,124Z" transform="translate(-101.45 -100)"/><path class="cls-2" d="M101.45,120.86l7-7.39v4.12h3.59v3.27h-3.61v3.57a1.59,1.59,0,0,0,.44,1.19,1.63,1.63,0,0,0,1.21.44,2.92,2.92,0,0,0,2-.93v4l-.62.36a6.6,6.6,0,0,1-3.28.77,5.71,5.71,0,0,1-3.58-1.06,3.4,3.4,0,0,1-1.37-2.84v-5.48Z" transform="translate(-101.45 -100)"/><path class="cls-2" d="M125,124.54h-7.09c.25,1.38,1.31,2.07,3.17,2.07a10.57,10.57,0,0,0,3.92-1.06V129a13,13,0,0,1-5.33,1.26,7,7,0,0,1-5-1.81,6.95,6.95,0,0,1-.17-9.36,5.92,5.92,0,0,1,4.43-1.77,6.39,6.39,0,0,1,3.51,1,4.92,4.92,0,0,1,2.1,2.62,8.65,8.65,0,0,1,.47,3Zm-5.57-3.68a1.25,1.25,0,0,0-1,.44,1.82,1.82,0,0,0-.37,1.21h2.7v-.13a1.61,1.61,0,0,0-.38-1.09A1.27,1.27,0,0,0,119.38,120.86Z" transform="translate(-101.45 -100)"/><path class="cls-2" d="M132.51,122.73v-.68c0-.61-.37-.92-1.12-.92a6.43,6.43,0,0,0-3.61,1.41,6.92,6.92,0,0,0-.65.49c-.21.18-.47.43-.78.74v-4l.59-.45a6.13,6.13,0,0,1,.51-.36,9.77,9.77,0,0,1,5.26-1.61,5.87,5.87,0,0,1,3,.72,4,4,0,0,1,1.78,2,4.15,4.15,0,0,1,.24,1.65v4.2q0,1.08,1,1.08l.48-.07-1.08,3.19a19.24,19.24,0,0,1-2.31.16,6.08,6.08,0,0,1-2.7-.47,1.68,1.68,0,0,1-.49-.35,5.46,5.46,0,0,1-2.88.82,4.16,4.16,0,0,1-2.69-.83,2.63,2.63,0,0,1-1-2.17,2.73,2.73,0,0,1,.94-2.18,9.81,9.81,0,0,1,3.46-1.6l1.63-.53Zm0,4.69V125l-.48.21a3.74,3.74,0,0,0-.46.23,3,3,0,0,0-.95.64,1.18,1.18,0,0,0-.24.79c0,.72.31,1.08,1,1.08A1.88,1.88,0,0,0,132.51,127.42Z" transform="translate(-101.45 -100)"/><path class="cls-2" d="M139.36,130V117.59h5.21v1.54a4.79,4.79,0,0,1,.79-.82,4.49,4.49,0,0,1,2.84-1,4.15,4.15,0,0,1,1.82.41,3.79,3.79,0,0,1,1.4,1.13c.06.09.13.19.2.31a4.13,4.13,0,0,1,.26.57A4.75,4.75,0,0,1,156,117.3a4.3,4.3,0,0,1,2.4.68,3.61,3.61,0,0,1,1.46,1.87,5.26,5.26,0,0,1,.24,1.78V130h-5.21V123.7a4.42,4.42,0,0,0-.08-.94,1.08,1.08,0,0,0-.38-.58,1.13,1.13,0,0,0-.71-.24,1.19,1.19,0,0,0-.67.19,2.74,2.74,0,0,0-.69.71V130h-5.22v-6.27a4.58,4.58,0,0,0-.07-.92,1.23,1.23,0,0,0-.33-.59,1,1,0,0,0-.65-.23,2.24,2.24,0,0,0-1.52.88V130Z" transform="translate(-101.45 -100)"/></svg>